HIERARCHY
ROOT hip
{
  OFFSET 0 0 0
  CHANNELS 6 Xposition Yposition Zposition Zrotation Yrotation Xrotation
  JOINT abdomen
  {
    OFFSET 0 20.6881 -0.73152
    CHANNELS 3 Zrotation Xrotation Yrotation
    JOINT chest
    {
      OFFSET 0 11.7043 -0.48768
      CHANNELS 3 Zrotation Xrotation Yrotation
      JOINT neck
      {
        OFFSET 0 22.1894 -2.19456
        CHANNELS 3 Zrotation Xrotation Yrotation
        JOINT head
        {
          OFFSET -0.24384 7.07133 1.2192
          CHANNELS 3 Zrotation Xrotation Yrotation
          JOINT leftEye
          {
            OFFSET 4.14528 8.04674 8.04672
            CHANNELS 3 Zrotation Xrotation Yrotation
            End Site
            {
              OFFSET 1 0 0
            }
          }
          JOINT rightEye
          {
            OFFSET -3.6576 8.04674 8.04672
            CHANNELS 3 Zrotation Xrotation Yrotation
            End Site
            {
              OFFSET 1 0 0
            }
          }
        }
      }
      JOINT rCollar
      {
        OFFSET -2.68224 19.2634 -4.8768
        CHANNELS 3 Zrotation Xrotation Yrotation
        JOINT rShldr
        {
          OFFSET -8.77824 -1.95073 1.46304
          CHANNELS 3 Zrotation Xrotation Yrotation
          JOINT rForeArm
          {
            OFFSET -28.1742 -1.7115 0.48768
            CHANNELS 3 Zrotation Xrotation Yrotation
            JOINT rHand
            {
              OFFSET -22.5879 0.773209 7.07136
              CHANNELS 3 Zrotation Xrotation Yrotation
              JOINT rThumb1
              {
                OFFSET -1.2192 -0.487915 3.41376
                CHANNELS 3 Zrotation Xrotation Yrotation
                JOINT rThumb2
                {
                  OFFSET -3.37035 -0.52449 3.41376
                  CHANNELS 3 Zrotation Xrotation Yrotation
                  End Site
                  {
                    OFFSET -1.78271 -1.18214 1.43049
                  }
                }
              }
              JOINT rIndex1
              {
                OFFSET -7.75947 0.938293 5.60832
                CHANNELS 3 Zrotation Xrotation Yrotation
                JOINT rIndex2
                {
                  OFFSET -2.54057 -0.884171 1.56538
                  CHANNELS 3 Zrotation Xrotation Yrotation
                  End Site
                  {
                    OFFSET -1.62519 -0.234802 1.16502
                  }
                }
              }
              JOINT rMid1
              {
                OFFSET -8.24714 1.18213 3.41376
                CHANNELS 3 Zrotation Xrotation Yrotation
                JOINT rMid2
                {
                  OFFSET -3.10165 -0.590103 1.0647
                  CHANNELS 3 Zrotation Xrotation Yrotation
                  End Site
                  {
                    OFFSET -2.48547 -0.328903 0.83742
                  }
                }
              }
              JOINT rRing1
              {
                OFFSET -8.82822 0.546677 1.51678
                CHANNELS 3 Zrotation Xrotation Yrotation
                JOINT rRing2
                {
                  OFFSET -2.60934 -0.819778 -0.0198488
                  CHANNELS 3 Zrotation Xrotation Yrotation
                  End Site
                  {
                    OFFSET -2.33842 -0.294052 0.168128
                  }
                }
              }
              JOINT rPinky1
              {
                OFFSET -8.27202 -0.0477905 -0.4584
                CHANNELS 3 Zrotation Xrotation Yrotation
                JOINT rPinky2
                {
                  OFFSET -1.82734 -0.647385 -0.700984
                  CHANNELS 3 Zrotation Xrotation Yrotation
                  End Site
                  {
                    OFFSET -1.69225 -0.51767 -0.607171
                  }
                }
              }
            }
          }
        }
      }
      JOINT lCollar
      {
        OFFSET 2.68224 19.2634 -4.8768
        CHANNELS 3 Zrotation Xrotation Yrotation
        JOINT lShldr
        {
          OFFSET 8.77824 -1.95073 1.46304
          CHANNELS 3 Zrotation Xrotation Yrotation
          JOINT lForeArm
          {
            OFFSET 28.1742 -1.7115 0.48768
            CHANNELS 3 Zrotation Xrotation Yrotation
            JOINT lHand
            {
              OFFSET 22.5879 0.773209 7.07136
              CHANNELS 3 Zrotation Xrotation Yrotation
              JOINT lThumb1
              {
                OFFSET 1.2192 -0.487915 3.41376
                CHANNELS 3 Zrotation Xrotation Yrotation
                JOINT lThumb2
                {
                  OFFSET 3.37035 -0.52449 3.41376
                  CHANNELS 3 Zrotation Xrotation Yrotation
                  End Site
                  {
                    OFFSET 1.78271 -1.18214 1.43049
                  }
                }
              }
              JOINT lIndex1
              {
                OFFSET 7.75947 0.938293 5.60832
                CHANNELS 3 Zrotation Xrotation Yrotation
                JOINT lIndex2
                {
                  OFFSET 2.54057 -0.884171 1.56538
                  CHANNELS 3 Zrotation Xrotation Yrotation
                  End Site
                  {
                    OFFSET 1.62519 -0.234802 1.16502
                  }
                }
              }
              JOINT lMid1
              {
                OFFSET 8.24714 1.18213 3.41376
                CHANNELS 3 Zrotation Xrotation Yrotation
                JOINT lMid2
                {
                  OFFSET 3.10165 -0.590103 1.0647
                  CHANNELS 3 Zrotation Xrotation Yrotation
                  End Site
                  {
                    OFFSET 2.48547 -0.328903 0.83742
                  }
                }
              }
              JOINT lRing1
              {
                OFFSET 8.82822 0.546677 1.51678
                CHANNELS 3 Zrotation Xrotation Yrotation
                JOINT lRing2
                {
                  OFFSET 2.60934 -0.819778 -0.0198488
                  CHANNELS 3 Zrotation Xrotation Yrotation
                  End Site
                  {
                    OFFSET 2.33842 -0.294052 0.168128
                  }
                }
              }
              JOINT lPinky1
              {
                OFFSET 8.27202 -0.0477905 -0.4584
                CHANNELS 3 Zrotation Xrotation Yrotation
                JOINT lPinky2
                {
                  OFFSET 1.82734 -0.647385 -0.700984
                  CHANNELS 3 Zrotation Xrotation Yrotation
                  End Site
                  {
                    OFFSET 1.69225 -0.51767 -0.607171
                  }
                }
              }
            }
          }
        }
      }
    }
  }
  JOINT rButtock
  {
    OFFSET -8.77824 4.35084 1.2192
    CHANNELS 3 Zrotation Xrotation Yrotation
    JOINT rThigh
    {
      OFFSET 0 -1.70687 -2.19456
      CHANNELS 3 Zrotation Xrotation Yrotation
      JOINT rShin
      {
        OFFSET 0 -36.8199 0.73152
        CHANNELS 3 Zrotation Xrotation Yrotation
        JOINT rFoot
        {
          OFFSET 0.73152 -45.1104 -5.12064
          CHANNELS 3 Zrotation Xrotation Yrotation
          End Site
          {
            OFFSET -1.1221 -3.69964 12.103
          }
        }
      }
    }
  }
  JOINT lButtock
  {
    OFFSET 8.77824 4.35084 1.2192
    CHANNELS 3 Zrotation Xrotation Yrotation
    JOINT lThigh
    {
      OFFSET 0 -1.70687 -2.19456
      CHANNELS 3 Zrotation Xrotation Yrotation
      JOINT lShin
      {
        OFFSET 0 -36.8199 0.73152
        CHANNELS 3 Zrotation Xrotation Yrotation
        JOINT lFoot
        {
          OFFSET -0.73152 -45.1104 -5.12064
          CHANNELS 3 Zrotation Xrotation Yrotation
          End Site
          {
            OFFSET 1.1221 -3.69964 12.103
          }
        }
      }
    }
  }
}
MOTION
Frames:	6
Frame Time:	0.03333
37.329499999999996 68.0104 25.797900000000002 -2.543787 -81.573292 5.673209 0.785062 1.935939 100.529655 -5.45212 -16.763619 -90.589104 -2.028896 -2.236353 66.178646 -10.610697 13.880962 -61.66516 12.03515 3.541195 32.687379 16.108283 0.635978 4.492145 -89.990365 50.745928 80.541697 115.764629 -40.818512 144.203457 9.807479 7.593757 50.262326 5.350421 -23.885928 -1.738756 -52.354829 15.587379 70.725657 -11.20935 -37.185813 -118.762302 -128.566332 52.193435 121.8634 6.849218 80.75484 26.901332 27.696865 -61.746644 8.920788 102.92673 -34.372104 52.688042 -60.058585 -3.276308 23.956264 66.577794 18.574935 -21.666656 -124.205295 81.009143 123.072919 -25.716356 81.10521 148.575373 -14.137068 -0.130339 17.868706 34.570449 10.848811 -6.897868 -40.361512 -59.697112 -59.863449 8.60057 27.938698 1.116325 2.45228 -33.947348 -0.152538 -11.600623 -44.186466 88.336537 -27.997715 -43.885099 0.573313 72.426835 38.041285 -50.750194 7.176807 65.485857 15.31338 132.494863 21.858478 -91.654689 96.555513 -8.13559 137.033733 104.533864 -27.198887 -173.754668 168.841905 -41.894102 161.68739 82.096477 3.263851 -9.035844 61.322305 -7.752526 57.442403 -78.860355 31.542249 -95.881262 -71.02016 24.686136 -58.656003 127.212923 -0.4131 -126.570553 -22.100543 -8.93952 27.368584 1.056886 -29.973459 0.546255 20.66994 43.144578 -69.912955 104.24487 18.607636 -28.931777
38.425799999999995 67.8811 26.1085 -0.362939 -79.255535 3.828587 0.504152 3.228173 55.309477 7.037567 -16.924193 -42.43154 -20.368783 7.628177 -94.447963 12.887849 0.114061 94.025278 14.815921 4.043059 30.37679 15.336858 -1.151489 -8.536545 -169.525815 -6.21478 145.925828 141.784827 28.667646 -136.981573 -154.664305 -13.618977 102.820757 -179.981817 7.137732 141.809569 -152.983481 -42.739593 66.401192 44.462684 15.323653 71.38147 -138.349528 -48.816026 161.667485 -172.600457 -11.957773 58.572235 0.821128 -13.419807 -1.73021 5.15198 -20.436969 51.360564 142.696028 -29.430467 160.896283 151.633501 -31.025125 174.21298 -156.435885 -52.541854 -113.062578 -48.315898 -26.511816 44.687552 -15.409853 15.133927 14.568887 32.274298 -20.257437 5.239319 174.290039 32.799105 -114.997607 -174.20949 -8.260727 -142.396164 163.419686 28.801378 -79.139638 -87.352178 -38.748174 -109.786655 148.814096 -13.533159 -118.307407 162.152636 -50.384457 -119.39491 91.456334 -70.090143 108.471279 163.691551 65.452291 171.549243 102.04828 -2.287708 131.514861 -63.585256 10.23125 10.935172 160.948352 5.064944 178.729661 -137.56116 -14.129703 -164.200375 71.929276 12.933947 79.614778 -104.140665 53.51603 -71.798501 -64.258379 49.387918 -118.824237 30.913578 -0.963288 -162.284191 -8.194275 8.497177 44.261563 -31.92238 -31.175542 -0.0 44.179324 28.472896 6.627553 -151.565261 -0.468725 59.335414
39.4428 67.68509999999999 26.487 3.782434 -79.736069 1.07281 0.487208 -3.396307 -180.0 -16.483368 -0.838057 -167.959177 -6.858623 14.226978 170.725163 11.344508 19.362885 -172.003743 14.46268 3.238315 25.118243 16.162151 -1.899776 -13.321093 41.52108 -73.504429 36.925247 65.988281 10.052236 -9.892732 -176.007252 -50.59572 95.26413 -172.748953 27.705497 139.994063 -176.174039 -51.171037 54.927462 -88.949842 -72.729642 52.627016 -6.297873 42.690681 -6.070025 -96.3307 -54.384127 -142.370048 12.177805 -75.65715 -7.085311 -134.853408 -40.565135 113.6164 105.16973 -76.633517 145.303012 -78.870586 -42.407479 -63.761228 -179.850075 71.534829 -178.522226 70.031266 -41.829643 -0.871418 -3.531586 -37.598569 29.984483 101.158899 52.94865 -79.69347 -151.974834 84.295695 -146.397344 -177.544108 -1.018224 -141.584932 -162.239715 -0.784419 -88.676693 115.135715 37.185025 -2.219047 77.618567 42.232064 -64.650714 1.785749 9.015505 15.965679 170.762149 -22.044312 -176.49426 -23.147 60.482935 64.926677 -55.723471 25.480117 45.344393 -137.759864 -60.527163 -168.915244 31.652297 24.846667 -48.365064 58.291283 -5.091333 162.860264 62.855477 -14.781727 56.016012 -79.039292 28.752779 66.144826 62.81331 -1.813467 -96.621648 148.643734 -47.59465 -11.112045 -8.755365 9.96094 41.680402 -33.965011 -37.562189 132.144896 13.353861 -60.534934 8.938838 15.617344 18.904696 178.989264
40.4565 68.2311 26.7453 2.972546 -78.978403 1.377934 -1.399682 -0.17881 88.156164 -1.268571 -18.572932 -75.105534 -3.183309 -0.945268 64.833666 -10.770592 15.201881 -59.35637 17.439515 2.827593 18.282896 17.074249 -4.246823 -27.748325 -128.739902 45.656883 116.210983 -156.62737 78.386263 109.072971 -157.107297 42.798809 -145.094859 15.246418 -43.535569 4.340301 -122.017229 -24.20135 91.450202 -46.857741 -46.589563 135.371495 -136.344737 10.419378 139.011333 -156.896497 -64.989348 76.371838 -6.349875 -24.966541 -12.161854 -153.823218 -11.098699 84.907737 -63.795302 9.599991 25.05338 68.186226 44.549635 -17.502791 175.991286 66.545861 -170.156192 -61.839655 45.696515 -174.202441 140.228378 -7.278361 178.433812 -50.299804 -7.421217 -10.867053 49.22907 -49.859958 98.255275 -159.936328 -48.299758 -133.420755 -95.034302 -44.948634 -65.821439 20.987476 44.235541 50.070642 141.507349 -15.069665 -119.845532 -123.651531 -79.067882 -51.527895 14.876929 22.000803 24.613416 -37.729255 11.469133 -40.737958 97.745721 -6.54958 123.308733 100.959353 -1.592096 176.248707 163.504167 1.31925 177.632796 35.29258 -56.784543 -58.526699 17.385739 -35.979335 -8.263865 -32.756942 -3.762099 -94.056134 -70.33892 -7.723507 0.207395 136.096445 -26.819603 -87.631628 -19.594977 3.458841 28.408519 -8.152125 -42.096786 -5.605862 28.470545 50.619831 84.177408 151.790151 70.998959 122.378083
41.4853 68.3095 26.961299999999998 3.058671 -78.596717 0.672908 3.27238 -0.517276 -125.196377 -7.1942 11.584458 141.412624 -19.974146 10.780387 -109.122953 14.710196 2.49768 112.007112 18.292032 2.242393 13.861855 12.268221 -5.701293 -49.719024 -94.171379 55.608307 85.175293 117.680317 -32.504517 148.313616 95.459258 -21.056244 54.15113 -39.354514 63.627159 21.11789 -160.520749 -47.579204 77.069629 -45.674742 -54.427069 101.028587 -136.037274 -34.352185 151.960928 3.238918 14.872371 62.102088 -60.097966 67.36234 35.450764 111.645964 -70.352996 141.028576 160.802353 0.259969 163.538083 -97.955838 52.256966 80.94813 -38.639263 -0.643082 5.776255 65.11622 33.656831 -100.533453 -15.257375 40.16307 9.477675 13.875386 28.775544 15.135474 -133.362502 1.070851 -166.118368 88.467623 69.493693 -64.394779 8.0974 -21.562265 -4.339684 83.697376 0.468011 -139.83231 141.915351 -31.135998 -124.025099 142.749728 -38.530784 -123.272316 17.511212 -0.314587 27.535005 105.974667 -12.000411 -126.281502 109.360657 -5.449593 126.184653 116.883471 24.343944 167.989071 91.600339 54.361568 -107.489123 -107.291219 -27.782297 -79.880426 -28.82692 11.481986 -81.669269 40.53366 2.359656 -87.243391 -62.010786 -49.841825 11.519349 136.813331 -2.877563 -88.366357 130.386617 79.326793 -0.0 -139.758009 23.468969 180.0 -30.687459 -47.508135 36.296208 156.422476 2.458496 -101.953316
42.5683 68.42660000000001 27.1615 3.589496 -77.591105 -0.089828 1.467202 3.566606 0.0 15.073872 -4.832275 19.141975 -1.537305 3.908182 87.429739 -8.943901 21.537999 -84.442228 17.353859 1.546383 10.107264 3.965716 -2.831942 -71.051115 -21.840068 23.925618 18.274121 73.25422 -21.773722 80.454029 163.449387 -27.861722 84.116634 -166.541703 44.234772 137.419186 -131.048929 -21.640292 94.462412 -55.696206 -65.668056 143.495654 -131.957766 -56.520695 159.292377 5.717898 -6.658918 63.346886 -108.110643 73.621006 78.888545 135.013258 -56.446047 161.747683 -115.629514 59.585009 82.870412 -162.136041 -69.625571 139.799315 -35.092162 6.750139 7.610215 97.198718 7.000184 -99.588914 119.497259 -59.741859 153.876128 -48.605041 -21.273218 -42.518433 61.606188 -68.047948 123.918924 -172.676018 -31.22285 -140.540054 8.681438 -17.440728 -3.133062 29.650208 55.189369 -59.640275 90.659838 36.847057 -98.993572 159.921268 -1.715279 -145.767996 15.822142 2.539779 26.405019 26.118082 43.268158 -78.994162 92.641467 -21.206038 113.191206 112.488378 -24.957721 177.052352 15.549042 -53.507441 -24.349684 -163.867062 10.891178 34.205282 19.291511 -41.780943 -5.948264 -34.221337 6.339691 -0.0 13.177082 64.263882 56.112836 -76.770121 62.708519 22.404438 -5.940847 9.092101 33.365685 -26.928701 -37.726037 -17.702675 2.831194 45.005443 -31.347205 -161.919727 -37.674984 -22.501045
